<?xml version="1.0" encoding="UTF-8" standalone="no"?>
<!DOCTYPE svg PUBLIC "-//W3C//DTD SVG 1.1//EN"
 "http://www.w3.org/Graphics/SVG/1.1/DTD/svg11.dtd">
<!-- Generated by graphviz version 2.36.0 (20140111.2315)
 -->
<!-- Title: %3 Pages: 1 -->
<svg width="274pt" height="98pt"
 viewBox="0.00 0.00 274.00 98.00" xmlns="http://www.w3.org/2000/svg" xmlns:xlink="http://www.w3.org/1999/xlink">
<g id="graph0" class="graph" transform="scale(1 1) rotate(0) translate(4 94)">
<title>%3</title>
<!-- state -->
<g id="node1" class="node"><title>state</title>
<ellipse fill="none" stroke="black" cx="27" cy="-72" rx="27" ry="18"/>
<text text-anchor="middle" x="27" y="-67.8" font-family="Times,serif" font-size="14.00">state</text>
</g>
<!-- renderer -->
<g id="node2" class="node"><title>renderer</title>
<polygon fill="none" stroke="black" points="168.207,-63 89.7927,-63 89.7927,-27 168.207,-27 168.207,-63"/>
<text text-anchor="middle" x="129" y="-47.8" font-family="Times,serif" font-size="14.00">component</text>
<text text-anchor="middle" x="129" y="-33.8" font-family="Times,serif" font-size="14.00">renderer</text>
</g>
<!-- state&#45;&gt;renderer -->
<g id="edge1" class="edge"><title>state&#45;&gt;renderer</title>
<path fill="none" stroke="black" d="M52.2072,-65.4641C60.53,-63.2169 70.1657,-60.6153 79.7178,-58.0362"/>
<polygon fill="black" stroke="black" points="80.8412,-61.3583 89.5832,-55.3725 79.0165,-54.6003 80.8412,-61.3583"/>
</g>
<!-- DOM -->
<g id="node4" class="node"><title>DOM</title>
<ellipse fill="none" stroke="black" cx="235" cy="-45" rx="30.988" ry="18"/>
<text text-anchor="middle" x="235" y="-40.8" font-family="Times,serif" font-size="14.00">DOM</text>
</g>
<!-- renderer&#45;&gt;DOM -->
<g id="edge3" class="edge"><title>renderer&#45;&gt;DOM</title>
<path fill="none" stroke="black" d="M168.135,-45C176.543,-45 185.472,-45 193.953,-45"/>
<polygon fill="black" stroke="black" points="194.011,-48.5001 204.01,-45 194.01,-41.5001 194.011,-48.5001"/>
</g>
<!-- send -->
<g id="node3" class="node"><title>send</title>
<ellipse fill="none" stroke="black" cx="27" cy="-18" rx="27" ry="18"/>
<text text-anchor="middle" x="27" y="-13.8" font-family="Times,serif" font-size="14.00">send</text>
</g>
<!-- send&#45;&gt;renderer -->
<g id="edge2" class="edge"><title>send&#45;&gt;renderer</title>
<path fill="none" stroke="black" d="M52.2072,-24.5359C60.53,-26.7831 70.1657,-29.3847 79.7178,-31.9638"/>
<polygon fill="black" stroke="black" points="79.0165,-35.3997 89.5832,-34.6275 80.8412,-28.6417 79.0165,-35.3997"/>
</g>
</g>
</svg>
