<?xml version="1.0" encoding="UTF-8" standalone="no"?>
<!DOCTYPE svg PUBLIC "-//W3C//DTD SVG 1.1//EN"
 "http://www.w3.org/Graphics/SVG/1.1/DTD/svg11.dtd">
<!-- Generated by graphviz version 2.36.0 (20140111.2315)
 -->
<!-- Title: %3 Pages: 1 -->
<svg width="360pt" height="127pt"
 viewBox="0.00 0.00 360.00 127.00" xmlns="http://www.w3.org/2000/svg" xmlns:xlink="http://www.w3.org/1999/xlink">
<g id="graph0" class="graph" transform="scale(1 1) rotate(0) translate(4 123)">
<title>%3</title>
<!-- app -->
<g id="node1" class="node"><title>app</title>
<ellipse fill="none" stroke="black" cx="44" cy="-94" rx="43.9976" ry="25.4118"/>
<text text-anchor="middle" x="44" y="-96.8" font-family="Times,serif" font-size="14.00">app</text>
<text text-anchor="middle" x="44" y="-82.8" font-family="Times,serif" font-size="14.00">instance</text>
</g>
<!-- constructor -->
<g id="node2" class="node"><title>constructor</title>
<polygon fill="none" stroke="black" points="203.479,-77 124.521,-77 124.521,-41 203.479,-41 203.479,-77"/>
<text text-anchor="middle" x="164" y="-54.8" font-family="Times,serif" font-size="14.00">constructor</text>
</g>
<!-- app&#45;&gt;constructor -->
<g id="edge1" class="edge"><title>app&#45;&gt;constructor</title>
<path fill="none" stroke="black" d="M83.3112,-82.6365C93.3067,-79.6717 104.209,-76.4379 114.651,-73.3407"/>
<polygon fill="black" stroke="black" points="115.885,-76.6255 124.477,-70.4263 113.895,-69.9145 115.885,-76.6255"/>
</g>
<!-- renderer -->
<g id="node4" class="node"><title>renderer</title>
<ellipse fill="none" stroke="black" cx="296" cy="-59" rx="55.1022" ry="25.4118"/>
<text text-anchor="middle" x="296" y="-61.8" font-family="Times,serif" font-size="14.00">component</text>
<text text-anchor="middle" x="296" y="-47.8" font-family="Times,serif" font-size="14.00">renderer</text>
</g>
<!-- constructor&#45;&gt;renderer -->
<g id="edge3" class="edge"><title>constructor&#45;&gt;renderer</title>
<path fill="none" stroke="black" d="M203.652,-59C212.027,-59 221.104,-59 230.176,-59"/>
<polygon fill="black" stroke="black" points="230.379,-62.5001 240.379,-59 230.379,-55.5001 230.379,-62.5001"/>
</g>
<!-- other -->
<g id="node3" class="node"><title>other</title>
<ellipse fill="none" stroke="black" cx="44" cy="-25" rx="31.8089" ry="25.4118"/>
<text text-anchor="middle" x="44" y="-27.8" font-family="Times,serif" font-size="14.00">other</text>
<text text-anchor="middle" x="44" y="-13.8" font-family="Times,serif" font-size="14.00">data</text>
</g>
<!-- other&#45;&gt;constructor -->
<g id="edge2" class="edge"><title>other&#45;&gt;constructor</title>
<path fill="none" stroke="black" d="M74.1685,-33.4045C86.3605,-36.9174 100.859,-41.0949 114.57,-45.0455"/>
<polygon fill="black" stroke="black" points="113.792,-48.4637 124.37,-47.8693 115.73,-41.7374 113.792,-48.4637"/>
</g>
</g>
</svg>
