<?xml version="1.0" encoding="UTF-8" standalone="no"?>
<!DOCTYPE svg PUBLIC "-//W3C//DTD SVG 1.1//EN"
 "http://www.w3.org/Graphics/SVG/1.1/DTD/svg11.dtd">
<!-- Generated by graphviz version 2.36.0 (20140111.2315)
 -->
<!-- Title: %3 Pages: 1 -->
<svg width="314pt" height="98pt"
 viewBox="0.00 0.00 314.00 98.00" xmlns="http://www.w3.org/2000/svg" xmlns:xlink="http://www.w3.org/1999/xlink">
<g id="graph0" class="graph" transform="scale(1 1) rotate(0) translate(4 94)">
<title>%3</title>
<!-- Submission -->
<g id="node1" class="node"><title>Submission</title>
<polygon fill="none" stroke="black" points="81.8523,-63 0.147675,-63 0.147675,-27 81.8523,-27 81.8523,-63"/>
<text text-anchor="middle" x="41" y="-40.8" font-family="Times,serif" font-size="14.00">Submission</text>
</g>
<!-- disabled -->
<g id="node2" class="node"><title>disabled</title>
<ellipse fill="none" stroke="black" cx="162" cy="-72" rx="43.9992" ry="18"/>
<text text-anchor="middle" x="162" y="-67.8" font-family="Times,serif" font-size="14.00">disabled$</text>
</g>
<!-- Submission&#45;&gt;disabled -->
<g id="edge1" class="edge"><title>Submission&#45;&gt;disabled</title>
<path fill="none" stroke="none" d="M81.9563,-41.235C97.5368,-43.6658 115.129,-47.9194 129.754,-52.8663"/>
<polygon fill="none" stroke="none" points="128.751,-56.2263 139.344,-56.388 131.164,-49.6553 128.751,-56.2263"/>
</g>
<!-- Submission&#45;&gt;disabled -->
<g id="edge3" class="edge"><title>Submission&#45;&gt;disabled</title>
<path fill="none" stroke="none" d="M81.9563,-54.0657C91.8819,-56.3177 102.624,-58.755 112.895,-61.0854"/>
<polygon fill="none" stroke="none" points="112.435,-64.5699 122.962,-63.3694 113.984,-57.7434 112.435,-64.5699"/>
</g>
<!-- Submission&#45;&gt;disabled -->
<g id="edge5" class="edge"><title>Submission&#45;&gt;disabled</title>
<path fill="none" stroke="black" d="M70.2013,-63.0785C84.6347,-68.2064 102.503,-72.6987 118.561,-75.365"/>
</g>
<!-- Confirm -->
<g id="node3" class="node"><title>Confirm</title>
<polygon fill="none" stroke="black" points="305.177,-63 242.823,-63 242.823,-27 305.177,-27 305.177,-63"/>
<text text-anchor="middle" x="274" y="-40.8" font-family="Times,serif" font-size="14.00">Confirm</text>
</g>
<!-- disabled&#45;&gt;Confirm -->
<g id="edge2" class="edge"><title>disabled&#45;&gt;Confirm</title>
<path fill="none" stroke="none" d="M183.432,-56.2091C197.222,-50.2846 215.886,-44.9395 232.608,-41.8469"/>
<polygon fill="none" stroke="none" points="233.388,-45.2666 242.708,-40.2273 232.28,-38.3549 233.388,-45.2666"/>
</g>
<!-- disabled&#45;&gt;Confirm -->
<g id="edge4" class="edge"><title>disabled&#45;&gt;Confirm</title>
<path fill="none" stroke="none" d="M200.241,-62.859C210.727,-60.2853 222.177,-57.4747 232.826,-54.8609"/>
<polygon fill="none" stroke="none" points="233.855,-58.2122 242.733,-52.4292 232.187,-51.414 233.855,-58.2122"/>
</g>
<!-- disabled&#45;&gt;Confirm -->
<g id="edge6" class="edge"><title>disabled&#45;&gt;Confirm</title>
<path fill="none" stroke="black" d="M205.529,-74.7478C216.158,-72.6814 227.443,-69.7493 237.68,-66.3699"/>
<polygon fill="black" stroke="black" points="238.874,-69.6602 247.119,-63.0064 236.524,-63.0664 238.874,-69.6602"/>
</g>
<!-- confirm -->
<g id="node4" class="node"><title>confirm</title>
<ellipse fill="none" stroke="black" cx="162" cy="-18" rx="38.7128" ry="18"/>
<text text-anchor="middle" x="162" y="-13.8" font-family="Times,serif" font-size="14.00">submit$</text>
</g>
<!-- Confirm&#45;&gt;confirm -->
<g id="edge7" class="edge"><title>Confirm&#45;&gt;confirm</title>
<path fill="none" stroke="black" d="M247.101,-26.9869C233.039,-21.5655 215.413,-16.8476 199.934,-14.235"/>
</g>
<!-- Confirm&#45;&gt;confirm -->
<g id="edge9" class="edge"><title>Confirm&#45;&gt;confirm</title>
<path fill="none" stroke="none" d="M242.596,-37.5372C231.443,-34.7996 218.59,-31.6449 206.511,-28.6801"/>
<polygon fill="none" stroke="none" points="207.147,-25.2324 196.601,-26.2476 205.479,-32.0306 207.147,-25.2324"/>
</g>
<!-- Confirm&#45;&gt;confirm -->
<g id="edge11" class="edge"><title>Confirm&#45;&gt;confirm</title>
<path fill="none" stroke="none" d="M242.579,-49.7554C226.802,-47.6374 207.628,-42.8786 192.055,-37.1966"/>
<polygon fill="none" stroke="none" points="192.998,-33.8044 182.413,-33.3478 190.403,-40.3056 192.998,-33.8044"/>
</g>
<!-- confirm&#45;&gt;Submission -->
<g id="edge8" class="edge"><title>confirm&#45;&gt;Submission</title>
<path fill="none" stroke="black" d="M124.432,-13.7308C110.252,-15.736 94.0219,-19.3863 79.7338,-23.7758"/>
<polygon fill="black" stroke="black" points="78.6007,-20.4639 70.2013,-26.9215 80.7945,-27.1113 78.6007,-20.4639"/>
</g>
<!-- confirm&#45;&gt;Submission -->
<g id="edge10" class="edge"><title>confirm&#45;&gt;Submission</title>
<path fill="none" stroke="none" d="M126.914,-25.7337C115.956,-28.2201 103.582,-31.0277 91.7377,-33.715"/>
<polygon fill="none" stroke="none" points="90.934,-30.3083 81.9563,-35.9343 92.4829,-37.1348 90.934,-30.3083"/>
</g>
<!-- confirm&#45;&gt;Submission -->
<g id="edge12" class="edge"><title>confirm&#45;&gt;Submission</title>
<path fill="none" stroke="none" d="M140.68,-33.069C127.246,-38.6071 109.014,-43.7049 91.8759,-47.0254"/>
<polygon fill="none" stroke="none" points="91.2014,-43.5902 81.9563,-48.765 92.4106,-50.485 91.2014,-43.5902"/>
</g>
</g>
</svg>
