<?xml version="1.0" encoding="UTF-8" standalone="no"?>
<!DOCTYPE svg PUBLIC "-//W3C//DTD SVG 1.1//EN"
 "http://www.w3.org/Graphics/SVG/1.1/DTD/svg11.dtd">
<!-- Generated by graphviz version 2.36.0 (20140111.2315)
 -->
<!-- Title: %3 Pages: 1 -->
<svg width="482pt" height="152pt"
 viewBox="0.00 0.00 482.00 152.00" xmlns="http://www.w3.org/2000/svg" xmlns:xlink="http://www.w3.org/1999/xlink">
<g id="graph0" class="graph" transform="scale(1 1) rotate(0) translate(4 148)">
<title>%3</title>
<g id="clust1" class="cluster"><title>cluster_component</title>
<polygon fill="none" stroke="black" points="102,-8 102,-136 388,-136 388,-8 102,-8"/>
<text text-anchor="middle" x="245" y="-120.8" font-family="Times,serif" font-size="14.00">Component</text>
</g>
<!-- intent -->
<g id="node1" class="node"><title>intent</title>
<polygon fill="none" stroke="black" points="173,-52 119,-52 119,-16 173,-16 173,-52"/>
<text text-anchor="middle" x="146" y="-29.8" font-family="Times,serif" font-size="14.00">intent</text>
</g>
<!-- action -->
<g id="node2" class="node"><title>action</title>
<ellipse fill="none" stroke="black" cx="146" cy="-88" rx="36.2732" ry="18"/>
<text text-anchor="middle" x="146" y="-83.8" font-family="Times,serif" font-size="14.00">action$</text>
</g>
<!-- intent&#45;&gt;action -->
<g id="edge1" class="edge"><title>intent&#45;&gt;action</title>
<path fill="none" stroke="black" d="M146,-52.1406C146,-54.6226 146,-57.1046 146,-59.5865"/>
<polygon fill="black" stroke="black" points="142.5,-59.7901 146,-69.7902 149.5,-59.7902 142.5,-59.7901"/>
</g>
<!-- model -->
<g id="node3" class="node"><title>model</title>
<polygon fill="none" stroke="black" points="276,-52 222,-52 222,-16 276,-16 276,-52"/>
<text text-anchor="middle" x="249" y="-29.8" font-family="Times,serif" font-size="14.00">model</text>
</g>
<!-- action&#45;&gt;model -->
<g id="edge2" class="edge"><title>action&#45;&gt;model</title>
<path fill="none" stroke="black" d="M171.192,-75.0657C183.615,-68.4235 198.986,-60.2058 212.705,-52.8708"/>
<polygon fill="black" stroke="black" points="214.714,-55.7655 221.882,-47.9639 211.413,-49.5924 214.714,-55.7655"/>
</g>
<!-- state -->
<g id="node4" class="node"><title>state</title>
<ellipse fill="none" stroke="black" cx="249" cy="-88" rx="30.9706" ry="18"/>
<text text-anchor="middle" x="249" y="-83.8" font-family="Times,serif" font-size="14.00">state$</text>
</g>
<!-- model&#45;&gt;state -->
<g id="edge3" class="edge"><title>model&#45;&gt;state</title>
<path fill="none" stroke="black" d="M249,-52.1406C249,-54.6226 249,-57.1046 249,-59.5865"/>
<polygon fill="black" stroke="black" points="245.5,-59.7901 249,-69.7902 252.5,-59.7902 245.5,-59.7901"/>
</g>
<!-- view -->
<g id="node5" class="node"><title>view</title>
<polygon fill="none" stroke="black" points="375,-52 321,-52 321,-16 375,-16 375,-52"/>
<text text-anchor="middle" x="348" y="-29.8" font-family="Times,serif" font-size="14.00">view</text>
</g>
<!-- state&#45;&gt;view -->
<g id="edge4" class="edge"><title>state&#45;&gt;view</title>
<path fill="none" stroke="black" d="M272.011,-75.7466C283.819,-69.1729 298.649,-60.917 311.997,-53.4861"/>
<polygon fill="black" stroke="black" points="313.911,-56.4265 320.946,-48.5043 310.506,-50.3104 313.911,-56.4265"/>
</g>
<!-- vtree -->
<g id="node6" class="node"><title>vtree</title>
<ellipse fill="none" stroke="black" cx="348" cy="-88" rx="32.4063" ry="18"/>
<text text-anchor="middle" x="348" y="-83.8" font-family="Times,serif" font-size="14.00">vtree$</text>
</g>
<!-- view&#45;&gt;vtree -->
<g id="edge5" class="edge"><title>view&#45;&gt;vtree</title>
<path fill="none" stroke="black" d="M348,-52.1406C348,-54.6226 348,-57.1046 348,-59.5865"/>
<polygon fill="black" stroke="black" points="344.5,-59.7901 348,-69.7902 351.5,-59.7902 344.5,-59.7901"/>
</g>
<!-- sinks -->
<g id="node8" class="node"><title>sinks</title>
<ellipse fill="none" stroke="black" cx="445" cy="-88" rx="28.0822" ry="18"/>
<text text-anchor="middle" x="445" y="-83.8" font-family="Times,serif" font-size="14.00">sinks</text>
</g>
<!-- vtree&#45;&gt;sinks -->
<g id="edge7" class="edge"><title>vtree&#45;&gt;sinks</title>
<path fill="none" stroke="black" d="M380.37,-88C388.669,-88 397.714,-88 406.311,-88"/>
<polygon fill="black" stroke="black" points="406.494,-91.5001 416.494,-88 406.494,-84.5001 406.494,-91.5001"/>
</g>
<!-- sources -->
<g id="node7" class="node"><title>sources</title>
<ellipse fill="none" stroke="black" cx="37" cy="-34" rx="36.7576" ry="18"/>
<text text-anchor="middle" x="37" y="-29.8" font-family="Times,serif" font-size="14.00">sources</text>
</g>
<!-- sources&#45;&gt;intent -->
<g id="edge6" class="edge"><title>sources&#45;&gt;intent</title>
<path fill="none" stroke="black" d="M73.6295,-34C84.8934,-34 97.3513,-34 108.664,-34"/>
<polygon fill="black" stroke="black" points="108.664,-37.5001 118.664,-34 108.664,-30.5001 108.664,-37.5001"/>
</g>
</g>
</svg>
