<?xml version="1.0" encoding="UTF-8" standalone="no"?>
<!DOCTYPE svg PUBLIC "-//W3C//DTD SVG 1.1//EN"
 "http://www.w3.org/Graphics/SVG/1.1/DTD/svg11.dtd">
<!-- Generated by graphviz version 2.36.0 (20140111.2315)
 -->
<!-- Title: %3 Pages: 1 -->
<svg width="482pt" height="168pt"
 viewBox="0.00 0.00 482.00 168.00" xmlns="http://www.w3.org/2000/svg" xmlns:xlink="http://www.w3.org/1999/xlink">
<g id="graph0" class="graph" transform="scale(1 1) rotate(0) translate(4 164.002)">
<title>%3</title>
<g id="clust1" class="cluster"><title>cluster_component</title>
<polygon fill="none" stroke="black" points="102,-24.002 102,-152.002 388,-152.002 388,-24.002 102,-24.002"/>
<text text-anchor="middle" x="245" y="-136.802" font-family="Times,serif" font-size="14.00">Component</text>
</g>
<!-- intent -->
<g id="node1" class="node"><title>intent</title>
<polygon fill="none" stroke="black" points="173,-68.002 119,-68.002 119,-32.002 173,-32.002 173,-68.002"/>
<text text-anchor="middle" x="146" y="-45.802" font-family="Times,serif" font-size="14.00">intent</text>
</g>
<!-- action -->
<g id="node2" class="node"><title>action</title>
<ellipse fill="none" stroke="black" cx="146" cy="-104.002" rx="36.2732" ry="18"/>
<text text-anchor="middle" x="146" y="-99.802" font-family="Times,serif" font-size="14.00">action$</text>
</g>
<!-- intent&#45;&gt;action -->
<g id="edge1" class="edge"><title>intent&#45;&gt;action</title>
<path fill="none" stroke="black" d="M146,-68.1426C146,-70.6246 146,-73.1065 146,-75.5885"/>
<polygon fill="black" stroke="black" points="142.5,-75.7921 146,-85.7921 149.5,-75.7922 142.5,-75.7921"/>
</g>
<!-- model -->
<g id="node3" class="node"><title>model</title>
<polygon fill="none" stroke="black" points="276,-68.002 222,-68.002 222,-32.002 276,-32.002 276,-68.002"/>
<text text-anchor="middle" x="249" y="-45.802" font-family="Times,serif" font-size="14.00">model</text>
</g>
<!-- action&#45;&gt;model -->
<g id="edge2" class="edge"><title>action&#45;&gt;model</title>
<path fill="none" stroke="black" d="M171.192,-91.0676C183.615,-84.4255 198.986,-76.2078 212.705,-68.8728"/>
<polygon fill="black" stroke="black" points="214.714,-71.7675 221.882,-63.9659 211.413,-65.5944 214.714,-71.7675"/>
</g>
<!-- sinks -->
<g id="node8" class="node"><title>sinks</title>
<ellipse fill="none" stroke="black" cx="445" cy="-104.002" rx="28.0822" ry="18"/>
<text text-anchor="middle" x="445" y="-99.802" font-family="Times,serif" font-size="14.00">sinks</text>
</g>
<!-- action&#45;&gt;sinks -->
<g id="edge9" class="edge"><title>action&#45;&gt;sinks</title>
<path fill="none" stroke="black" stroke-dasharray="5,2" d="M167.943,-89.6288C172.822,-85.8105 177.811,-81.4906 182,-77.002 201.68,-55.9138 193.675,-38.5027 218,-23.002 255.16,0.676882 272.064,-11.345 316,-8.00199 347.908,-5.5742 360.251,7.93595 388,-8.00199 413.506,-22.6518 428.493,-53.895 436.444,-76.7751"/>
<polygon fill="black" stroke="black" points="433.117,-77.8632 439.523,-86.3023 439.778,-75.7106 433.117,-77.8632"/>
</g>
<!-- state -->
<g id="node4" class="node"><title>state</title>
<ellipse fill="none" stroke="black" cx="249" cy="-104.002" rx="30.9706" ry="18"/>
<text text-anchor="middle" x="249" y="-99.802" font-family="Times,serif" font-size="14.00">state$</text>
</g>
<!-- model&#45;&gt;state -->
<g id="edge3" class="edge"><title>model&#45;&gt;state</title>
<path fill="none" stroke="black" d="M249,-68.1426C249,-70.6246 249,-73.1065 249,-75.5885"/>
<polygon fill="black" stroke="black" points="245.5,-75.7921 249,-85.7921 252.5,-75.7922 245.5,-75.7921"/>
</g>
<!-- view -->
<g id="node5" class="node"><title>view</title>
<polygon fill="none" stroke="black" points="375,-68.002 321,-68.002 321,-32.002 375,-32.002 375,-68.002"/>
<text text-anchor="middle" x="348" y="-45.802" font-family="Times,serif" font-size="14.00">view</text>
</g>
<!-- state&#45;&gt;view -->
<g id="edge4" class="edge"><title>state&#45;&gt;view</title>
<path fill="none" stroke="black" d="M272.011,-91.7486C283.819,-85.1749 298.649,-76.919 311.997,-69.4881"/>
<polygon fill="black" stroke="black" points="313.911,-72.4285 320.946,-64.5063 310.506,-66.3123 313.911,-72.4285"/>
</g>
<!-- state&#45;&gt;sinks -->
<g id="edge8" class="edge"><title>state&#45;&gt;sinks</title>
<path fill="none" stroke="black" stroke-dasharray="5,2" d="M267.529,-89.5614C271.813,-85.6803 276.242,-81.3482 280,-77.002 298.867,-55.1838 290.569,-36.6125 316,-23.002 344.214,-7.90254 359.66,-8.14147 388,-23.002 409.661,-34.3601 424.601,-58.3198 433.567,-77.2495"/>
<polygon fill="black" stroke="black" points="430.459,-78.876 437.715,-86.5966 436.858,-76.0365 430.459,-78.876"/>
</g>
<!-- vtree -->
<g id="node6" class="node"><title>vtree</title>
<ellipse fill="none" stroke="black" cx="348" cy="-104.002" rx="32.4063" ry="18"/>
<text text-anchor="middle" x="348" y="-99.802" font-family="Times,serif" font-size="14.00">vtree$</text>
</g>
<!-- view&#45;&gt;vtree -->
<g id="edge5" class="edge"><title>view&#45;&gt;vtree</title>
<path fill="none" stroke="black" d="M348,-68.1426C348,-70.6246 348,-73.1065 348,-75.5885"/>
<polygon fill="black" stroke="black" points="344.5,-75.7921 348,-85.7921 351.5,-75.7922 344.5,-75.7921"/>
</g>
<!-- vtree&#45;&gt;sinks -->
<g id="edge7" class="edge"><title>vtree&#45;&gt;sinks</title>
<path fill="none" stroke="black" d="M380.37,-104.002C388.669,-104.002 397.714,-104.002 406.311,-104.002"/>
<polygon fill="black" stroke="black" points="406.494,-107.502 416.494,-104.002 406.494,-100.502 406.494,-107.502"/>
</g>
<!-- sources -->
<g id="node7" class="node"><title>sources</title>
<ellipse fill="none" stroke="black" cx="37" cy="-50.002" rx="36.7576" ry="18"/>
<text text-anchor="middle" x="37" y="-45.802" font-family="Times,serif" font-size="14.00">sources</text>
</g>
<!-- sources&#45;&gt;intent -->
<g id="edge6" class="edge"><title>sources&#45;&gt;intent</title>
<path fill="none" stroke="black" d="M73.6295,-50.002C84.8934,-50.002 97.3513,-50.002 108.664,-50.002"/>
<polygon fill="black" stroke="black" points="108.664,-53.5021 118.664,-50.002 108.664,-46.5021 108.664,-53.5021"/>
</g>
</g>
</svg>
