<?xml version="1.0" encoding="UTF-8" standalone="no"?>
<!DOCTYPE svg PUBLIC "-//W3C//DTD SVG 1.1//EN"
 "http://www.w3.org/Graphics/SVG/1.1/DTD/svg11.dtd">
<!-- Generated by graphviz version 2.36.0 (20140111.2315)
 -->
<!-- Title: %3 Pages: 1 -->
<svg width="344pt" height="152pt"
 viewBox="0.00 0.00 344.00 152.00" xmlns="http://www.w3.org/2000/svg" xmlns:xlink="http://www.w3.org/1999/xlink">
<g id="graph0" class="graph" transform="scale(1 1) rotate(0) translate(4 148)">
<title>%3</title>
<g id="clust1" class="cluster"><title>cluster_Submission</title>
<polygon fill="none" stroke="black" points="8,-8 8,-136 114,-136 114,-8 8,-8"/>
<text text-anchor="middle" x="61" y="-120.8" font-family="Times,serif" font-size="14.00">Submission</text>
</g>
<g id="clust2" class="cluster"><title>cluster_Confirm</title>
<polygon fill="none" stroke="black" points="250,-8 250,-136 328,-136 328,-8 250,-8"/>
<text text-anchor="middle" x="289" y="-120.8" font-family="Times,serif" font-size="14.00">Confirm</text>
</g>
<!-- field -->
<g id="node1" class="node"><title>field</title>
<ellipse fill="none" stroke="black" stroke-dasharray="5,2" cx="61" cy="-88" rx="27" ry="18"/>
<text text-anchor="middle" x="61" y="-83.8" font-family="Times,serif" font-size="14.00">field</text>
</g>
<!-- disabled -->
<g id="node5" class="node"><title>disabled</title>
<ellipse fill="none" stroke="black" cx="182" cy="-88" rx="39.6558" ry="18"/>
<text text-anchor="middle" x="182" y="-83.8" font-family="Times,serif" font-size="14.00">disabled</text>
</g>
<!-- field&#45;&gt;disabled -->
<g id="edge1" class="edge"><title>field&#45;&gt;disabled</title>
<path fill="none" stroke="black" d="M113.626,-88C123.243,-88 133.14,-88 142.287,-88"/>
</g>
<!-- submitted -->
<g id="node2" class="node"><title>submitted</title>
<ellipse fill="none" stroke="black" stroke-dasharray="5,2" cx="61" cy="-34" rx="44.9768" ry="18"/>
<text text-anchor="middle" x="61" y="-29.8" font-family="Times,serif" font-size="14.00">submitted</text>
</g>
<!-- status -->
<g id="node3" class="node"><title>status</title>
<ellipse fill="none" stroke="black" stroke-dasharray="5,2" cx="289" cy="-88" rx="30.0035" ry="18"/>
<text text-anchor="middle" x="289" y="-83.8" font-family="Times,serif" font-size="14.00">status</text>
</g>
<!-- bogus -->
<g id="node4" class="node"><title>bogus</title>
<ellipse fill="none" stroke="none" cx="289" cy="-34" rx="31.4723" ry="18"/>
<text text-anchor="middle" x="289" y="-29.8" font-family="Times,serif" font-size="14.00" fill="#fffffe">bogus</text>
</g>
<!-- submit -->
<g id="node6" class="node"><title>submit</title>
<ellipse fill="none" stroke="black" cx="182" cy="-34" rx="34.3701" ry="18"/>
<text text-anchor="middle" x="182" y="-29.8" font-family="Times,serif" font-size="14.00">submit</text>
</g>
<!-- bogus&#45;&gt;submit -->
<g id="edge3" class="edge"><title>bogus&#45;&gt;submit</title>
<path fill="none" stroke="black" d="M250.009,-34C238.952,-34 226.962,-34 216.223,-34"/>
</g>
<!-- disabled&#45;&gt;status -->
<g id="edge2" class="edge"><title>disabled&#45;&gt;status</title>
<path fill="none" stroke="black" d="M221.8,-88C230.439,-88 239.609,-88 248.284,-88"/>
<polygon fill="black" stroke="black" points="240,-91.5006 250,-88 240,-84.5006 240,-91.5006"/>
</g>
<!-- submit&#45;&gt;submitted -->
<g id="edge4" class="edge"><title>submit&#45;&gt;submitted</title>
<path fill="none" stroke="black" d="M147.812,-34C138.072,-34 127.155,-34 116.456,-34"/>
<polygon fill="black" stroke="black" points="124,-30.5004 114,-34 124,-37.5004 124,-30.5004"/>
</g>
</g>
</svg>
