<?xml version="1.0" encoding="UTF-8" standalone="no"?>
<!DOCTYPE svg PUBLIC "-//W3C//DTD SVG 1.1//EN"
 "http://www.w3.org/Graphics/SVG/1.1/DTD/svg11.dtd">
<!-- Generated by graphviz version 2.36.0 (20140111.2315)
 -->
<!-- Title: %3 Pages: 1 -->
<svg width="268pt" height="98pt"
 viewBox="0.00 0.00 268.00 98.00" xmlns="http://www.w3.org/2000/svg" xmlns:xlink="http://www.w3.org/1999/xlink">
<g id="graph0" class="graph" transform="scale(1 1) rotate(0) translate(4 94)">
<title>%3</title>
<!-- parent -->
<g id="node1" class="node"><title>parent</title>
<polygon fill="none" stroke="black" points="54,-63 0,-63 0,-27 54,-27 54,-63"/>
<text text-anchor="middle" x="27" y="-40.8" font-family="Times,serif" font-size="14.00">parent</text>
</g>
<!-- prop -->
<g id="node2" class="node"><title>prop</title>
<ellipse fill="none" stroke="black" cx="130" cy="-72" rx="27" ry="18"/>
<text text-anchor="middle" x="130" y="-67.8" font-family="Times,serif" font-size="14.00">prop</text>
</g>
<!-- parent&#45;&gt;prop -->
<g id="edge1" class="edge"><title>parent&#45;&gt;prop</title>
<path fill="none" stroke="black" d="M54.01,-51.9532C66.3992,-55.2651 81.3832,-59.2708 94.69,-62.828"/>
<polygon fill="black" stroke="black" points="93.9034,-66.2406 104.468,-65.442 95.7113,-59.4781 93.9034,-66.2406"/>
</g>
<!-- child -->
<g id="node3" class="node"><title>child</title>
<polygon fill="none" stroke="black" points="260,-63 206,-63 206,-27 260,-27 260,-63"/>
<text text-anchor="middle" x="233" y="-40.8" font-family="Times,serif" font-size="14.00">child</text>
</g>
<!-- prop&#45;&gt;child -->
<g id="edge2" class="edge"><title>prop&#45;&gt;child</title>
<path fill="none" stroke="black" d="M155.449,-65.4641C167.545,-62.2305 182.387,-58.2629 195.771,-54.6849"/>
<polygon fill="black" stroke="black" points="196.896,-58.0072 205.653,-52.0433 195.088,-51.2446 196.896,-58.0072"/>
</g>
<!-- callback -->
<g id="node4" class="node"><title>callback</title>
<ellipse fill="none" stroke="black" cx="130" cy="-18" rx="39.6299" ry="18"/>
<text text-anchor="middle" x="130" y="-13.8" font-family="Times,serif" font-size="14.00">callback</text>
</g>
<!-- child&#45;&gt;callback -->
<g id="edge3" class="edge"><title>child&#45;&gt;callback</title>
<path fill="none" stroke="black" d="M205.861,-38.0123C196.233,-35.4384 185.051,-32.4493 174.312,-29.5785"/>
<polygon fill="black" stroke="black" points="175.196,-26.192 164.632,-26.9906 173.388,-32.9545 175.196,-26.192"/>
</g>
<!-- callback&#45;&gt;parent -->
<g id="edge4" class="edge"><title>callback&#45;&gt;parent</title>
<path fill="none" stroke="black" d="M95.4474,-26.9695C85.3274,-29.6748 74.1804,-32.6548 63.9132,-35.3994"/>
<polygon fill="black" stroke="black" points="62.7668,-32.0829 54.01,-38.0468 64.5747,-38.8454 62.7668,-32.0829"/>
</g>
</g>
</svg>
