<?xml version="1.0" encoding="UTF-8" standalone="no"?>
<!DOCTYPE svg PUBLIC "-//W3C//DTD SVG 1.1//EN"
 "http://www.w3.org/Graphics/SVG/1.1/DTD/svg11.dtd">
<!-- Generated by graphviz version 2.36.0 (20140111.2315)
 -->
<!-- Title: %3 Pages: 1 -->
<svg width="268pt" height="98pt"
 viewBox="0.00 0.00 268.00 98.00" xmlns="http://www.w3.org/2000/svg" xmlns:xlink="http://www.w3.org/1999/xlink">
<g id="graph0" class="graph" transform="scale(1 1) rotate(0) translate(4 94)">
<title>%3</title>
<!-- parent -->
<g id="node1" class="node"><title>parent</title>
<polygon fill="none" stroke="black" points="54,-63 0,-63 0,-27 54,-27 54,-63"/>
<text text-anchor="middle" x="27" y="-40.8" font-family="Times,serif" font-size="14.00">parent</text>
</g>
<!-- prop -->
<g id="node2" class="node"><title>prop</title>
<ellipse fill="none" stroke="black" cx="130" cy="-72" rx="27" ry="18"/>
<text text-anchor="middle" x="130" y="-67.8" font-family="Times,serif" font-size="14.00">prop</text>
</g>
<!-- parent&#45;&gt;prop -->
<g id="edge1" class="edge"><title>parent&#45;&gt;prop</title>
<path fill="none" stroke="none" d="M54.01,-39.9767C69.3527,-42.0074 88.6748,-47.2129 103.863,-53.4244"/>
<polygon fill="none" stroke="none" points="102.609,-56.6987 113.163,-57.6282 105.492,-50.32 102.609,-56.6987"/>
</g>
<!-- parent&#45;&gt;prop -->
<g id="edge3" class="edge"><title>parent&#45;&gt;prop</title>
<path fill="none" stroke="none" d="M54.01,-51.9532C66.3992,-55.2651 81.3832,-59.2708 94.69,-62.828"/>
<polygon fill="none" stroke="none" points="93.9034,-66.2406 104.468,-65.442 95.7113,-59.4781 93.9034,-66.2406"/>
</g>
<!-- parent&#45;&gt;prop -->
<g id="edge5" class="edge"><title>parent&#45;&gt;prop</title>
<path fill="none" stroke="black" d="M51.9356,-63.0785C67.5691,-69.6227 87.9509,-75.1316 103.827,-77.1314"/>
</g>
<!-- child -->
<g id="node3" class="node"><title>child</title>
<polygon fill="none" stroke="black" points="260,-63 206,-63 206,-27 260,-27 260,-63"/>
<text text-anchor="middle" x="233" y="-40.8" font-family="Times,serif" font-size="14.00">child</text>
</g>
<!-- prop&#45;&gt;child -->
<g id="edge2" class="edge"><title>prop&#45;&gt;child</title>
<path fill="none" stroke="none" d="M146.781,-57.6562C159.83,-51.0674 178.872,-45.0127 195.648,-41.7002"/>
<polygon fill="none" stroke="none" points="196.443,-45.1159 205.727,-40.0118 195.286,-38.2121 196.443,-45.1159"/>
</g>
<!-- prop&#45;&gt;child -->
<g id="edge4" class="edge"><title>prop&#45;&gt;child</title>
<path fill="none" stroke="none" d="M155.449,-65.4641C167.545,-62.2305 182.387,-58.2629 195.771,-54.6849"/>
<polygon fill="none" stroke="none" points="196.896,-58.0072 205.653,-52.0433 195.088,-51.2446 196.896,-58.0072"/>
</g>
<!-- prop&#45;&gt;child -->
<g id="edge6" class="edge"><title>prop&#45;&gt;child</title>
<path fill="none" stroke="black" d="M155.966,-77.1573C168.752,-75.5674 184.501,-71.6832 198.344,-66.8064"/>
<polygon fill="black" stroke="black" points="199.932,-69.9461 208.016,-63.0986 197.426,-63.4098 199.932,-69.9461"/>
</g>
<!-- callback -->
<g id="node4" class="node"><title>callback</title>
<ellipse fill="none" stroke="black" cx="130" cy="-18" rx="39.6299" ry="18"/>
<text text-anchor="middle" x="130" y="-13.8" font-family="Times,serif" font-size="14.00">callback</text>
</g>
<!-- child&#45;&gt;callback -->
<g id="edge7" class="edge"><title>child&#45;&gt;callback</title>
<path fill="none" stroke="black" d="M208.114,-26.9425C196.5,-22.0758 182.256,-17.7798 169.184,-15.0709"/>
</g>
<!-- child&#45;&gt;callback -->
<g id="edge9" class="edge"><title>child&#45;&gt;callback</title>
<path fill="none" stroke="none" d="M205.861,-38.0123C196.233,-35.4384 185.051,-32.4493 174.312,-29.5785"/>
<polygon fill="none" stroke="none" points="175.196,-26.192 164.632,-26.9906 173.388,-32.9545 175.196,-26.192"/>
</g>
<!-- child&#45;&gt;callback -->
<g id="edge11" class="edge"><title>child&#45;&gt;callback</title>
<path fill="none" stroke="none" d="M205.986,-50.0228C191.625,-48.1216 173.779,-43.4394 159.1,-37.7544"/>
<polygon fill="none" stroke="none" points="160.097,-34.3751 149.525,-33.6804 157.356,-40.8163 160.097,-34.3751"/>
</g>
<!-- callback&#45;&gt;parent -->
<g id="edge8" class="edge"><title>callback&#45;&gt;parent</title>
<path fill="none" stroke="black" d="M90.6294,-15.1097C80.9797,-17.1189 70.7019,-19.9889 61.3218,-23.3118"/>
<polygon fill="black" stroke="black" points="60.0128,-20.0652 51.9356,-26.9215 62.5255,-26.5987 60.0128,-20.0652"/>
</g>
<!-- callback&#45;&gt;parent -->
<g id="edge10" class="edge"><title>callback&#45;&gt;parent</title>
<path fill="none" stroke="none" d="M95.4474,-26.9695C85.3274,-29.6748 74.1804,-32.6548 63.9132,-35.3994"/>
<polygon fill="none" stroke="none" points="62.7668,-32.0829 54.01,-38.0468 64.5747,-38.8454 62.7668,-32.0829"/>
</g>
<!-- callback&#45;&gt;parent -->
<g id="edge12" class="edge"><title>callback&#45;&gt;parent</title>
<path fill="none" stroke="none" d="M110.411,-33.7106C97.4245,-39.8121 79.6689,-45.3083 63.9637,-48.376"/>
<polygon fill="none" stroke="none" points="63.3043,-44.9375 54.01,-50.0233 64.4473,-51.8435 63.3043,-44.9375"/>
</g>
</g>
</svg>
